<svg width="48" height="48" viewBox="0 0 48 48" fill="none" xmlns="http://www.w3.org/2000/svg">
<path d="M6 12H10H42" stroke="#E73F5D" stroke-width="4" stroke-linecap="round" stroke-linejoin="round"/>
<path d="M15.9995 12.0002V8.00024C15.9995 6.93938 16.4209 5.92196 17.1711 5.17182C17.9212 4.42167 18.9386 4.00024 19.9995 4.00024H27.9995C29.0604 4.00024 30.0778 4.42167 30.8279 5.17182C31.5781 5.92196 31.9995 6.93938 31.9995 8.00024V12.0002M37.9995 12.0002V40.0002C37.9995 41.0611 37.5781 42.0785 36.8279 42.8287C36.0778 43.5788 35.0604 44.0002 33.9995 44.0002H13.9995C12.9386 44.0002 11.9212 43.5788 11.1711 42.8287C10.4209 42.0785 9.99951 41.0611 9.99951 40.0002V12.0002H37.9995Z" stroke="#E73F5D" stroke-width="4" stroke-linecap="round" stroke-linejoin="round"/>
</svg>
